<svg width="20" height="22" viewBox="0 0 20 22" fill="none" xmlns="http://www.w3.org/2000/svg">
<path d="M13 20.4995V12.4995C13 12.2343 12.8946 11.9799 12.7071 11.7924C12.5196 11.6049 12.2652 11.4995 12 11.4995H8C7.73478 11.4995 7.48043 11.6049 7.29289 11.7924C7.10536 11.9799 7 12.2343 7 12.4995V20.4995M1 9.49948C0.99993 9.20855 1.06333 8.9211 1.18579 8.6572C1.30824 8.39329 1.4868 8.15928 1.709 7.97148L8.709 1.97248C9.06999 1.66739 9.52736 1.5 10 1.5C10.4726 1.5 10.93 1.66739 11.291 1.97248L18.291 7.97148C18.5132 8.15928 18.6918 8.39329 18.8142 8.6572C18.9367 8.9211 19.0001 9.20855 19 9.49948V18.4995C19 19.0299 18.7893 19.5386 18.4142 19.9137C18.0391 20.2888 17.5304 20.4995 17 20.4995H3C2.46957 20.4995 1.96086 20.2888 1.58579 19.9137C1.21071 19.5386 1 19.0299 1 18.4995V9.49948Z" stroke="#FFFFFF" stroke-width="2" stroke-linecap="round" stroke-linejoin="round"/>
</svg>
