<svg width="21" height="23" viewBox="0 0 21 23" fill="none" xmlns="http://www.w3.org/2000/svg">
<path d="M10.7376 1.5H10.2976C9.76715 1.5 9.25844 1.71071 8.88337 2.08579C8.50829 2.46086 8.29758 2.96957 8.29758 3.5V3.68C8.29722 4.03073 8.20464 4.37519 8.02912 4.67884C7.8536 4.98248 7.60132 5.23464 7.29758 5.41L6.86758 5.66C6.56354 5.83554 6.21865 5.92795 5.86758 5.92795C5.51651 5.92795 5.17162 5.83554 4.86758 5.66L4.71758 5.58C4.25864 5.31526 3.71342 5.24344 3.20158 5.38031C2.68975 5.51717 2.25313 5.85154 1.98758 6.31L1.76758 6.69C1.50284 7.14893 1.43102 7.69416 1.56789 8.206C1.70475 8.71783 2.03912 9.15445 2.49758 9.42L2.64758 9.52C2.94986 9.69451 3.2012 9.94509 3.37663 10.2468C3.55206 10.5486 3.64547 10.891 3.64758 11.24V11.75C3.64898 12.1024 3.55723 12.449 3.38162 12.7545C3.20602 13.0601 2.95279 13.3138 2.64758 13.49L2.49758 13.58C2.03912 13.8456 1.70475 14.2822 1.56789 14.794C1.43102 15.3058 1.50284 15.8511 1.76758 16.31L1.98758 16.69C2.25313 17.1485 2.68975 17.4828 3.20158 17.6197C3.71342 17.7566 4.25864 17.6847 4.71758 17.42L4.86758 17.34C5.17162 17.1645 5.51651 17.0721 5.86758 17.0721C6.21865 17.0721 6.56354 17.1645 6.86758 17.34L7.29758 17.59C7.60132 17.7654 7.8536 18.0175 8.02912 18.3212C8.20464 18.6248 8.29722 18.9693 8.29758 19.32V19.5C8.29758 20.0304 8.50829 20.5391 8.88337 20.9142C9.25844 21.2893 9.76715 21.5 10.2976 21.5H10.7376C11.268 21.5 11.7767 21.2893 12.1518 20.9142C12.5269 20.5391 12.7376 20.0304 12.7376 19.5V19.32C12.7379 18.9693 12.8305 18.6248 13.006 18.3212C13.1816 18.0175 13.4338 17.7654 13.7376 17.59L14.1676 17.34C14.4716 17.1645 14.8165 17.0721 15.1676 17.0721C15.5187 17.0721 15.8635 17.1645 16.1676 17.34L16.3176 17.42C16.7765 17.6847 17.3217 17.7566 17.8336 17.6197C18.3454 17.4828 18.782 17.1485 19.0476 16.69L19.2676 16.3C19.5323 15.8411 19.6041 15.2958 19.4673 14.784C19.3304 14.2722 18.996 13.8356 18.5376 13.57L18.3876 13.49C18.0824 13.3138 17.8291 13.0601 17.6535 12.7545C17.4779 12.449 17.3862 12.1024 17.3876 11.75V11.25C17.3862 10.8976 17.4779 10.551 17.6535 10.2455C17.8291 9.93994 18.0824 9.68621 18.3876 9.51L18.5376 9.42C18.996 9.15445 19.3304 8.71783 19.4673 8.206C19.6041 7.69416 19.5323 7.14893 19.2676 6.69L19.0476 6.31C18.782 5.85154 18.3454 5.51717 17.8336 5.38031C17.3217 5.24344 16.7765 5.31526 16.3176 5.58L16.1676 5.66C15.8635 5.83554 15.5187 5.92795 15.1676 5.92795C14.8165 5.92795 14.4716 5.83554 14.1676 5.66L13.7376 5.41C13.4338 5.23464 13.1816 4.98248 13.006 4.67884C12.8305 4.37519 12.7379 4.03073 12.7376 3.68V3.5C12.7376 2.96957 12.5269 2.46086 12.1518 2.08579C11.7767 1.71071 11.268 1.5 10.7376 1.5Z" stroke="white" stroke-width="2" stroke-linecap="round" stroke-linejoin="round"/>
<path d="M10.5176 14.5C12.1744 14.5 13.5176 13.1569 13.5176 11.5C13.5176 9.84315 12.1744 8.5 10.5176 8.5C8.86072 8.5 7.51758 9.84315 7.51758 11.5C7.51758 13.1569 8.86072 14.5 10.5176 14.5Z" stroke="white" stroke-width="2" stroke-linecap="round" stroke-linejoin="round"/>
</svg>
