<svg width="23" height="23" viewBox="0 0 23 23" fill="none" xmlns="http://www.w3.org/2000/svg">
<path d="M15.74 7.26001L13.936 12.671C13.8378 12.9656 13.6724 13.2333 13.4528 13.4528C13.2333 13.6724 12.9656 13.8378 12.671 13.936L7.26001 15.74L9.06401 10.329C9.16219 10.0344 9.32762 9.76675 9.54718 9.54718C9.76675 9.32762 10.0344 9.16219 10.329 9.06401L15.74 7.26001Z" stroke="white" stroke-width="2" stroke-linecap="round" stroke-linejoin="round"/>
<path d="M11.5 21.5C17.0228 21.5 21.5 17.0228 21.5 11.5C21.5 5.97715 17.0228 1.5 11.5 1.5C5.97715 1.5 1.5 5.97715 1.5 11.5C1.5 17.0228 5.97715 21.5 11.5 21.5Z" stroke="white" stroke-width="2" stroke-linecap="round" stroke-linejoin="round"/>
</svg>
