<svg width="27" height="27" viewBox="0 0 27 27" fill="none" xmlns="http://www.w3.org/2000/svg">
<path d="M13.4994 1.5V3.9M5.01492 5.01592L6.707 6.70792M23.0999 13.5H25.5M21.9837 5.01592L20.2916 6.70792M18.236 14.2801C18.3837 13.3855 18.275 12.4673 17.9224 11.632C17.5699 10.7966 16.9879 10.0782 16.2439 9.55985C15.4999 9.04153 14.6244 8.74453 13.7185 8.70323C12.8127 8.66192 11.9137 8.87801 11.1257 9.32648M14.6994 25.5H7.49907C6.36378 25.4998 5.25185 25.1775 4.29242 24.5706C3.333 23.9636 2.56545 23.097 2.07892 22.0713C1.59239 21.0456 1.40685 19.9029 1.54385 18.776C1.68085 17.649 2.13477 16.5841 2.85288 15.7048C3.57099 14.8255 4.52383 14.168 5.60072 13.8086C6.67762 13.4492 7.83439 13.4027 8.93667 13.6745C10.039 13.9462 11.0415 14.5251 11.8279 15.3439C12.6143 16.1626 13.1523 17.1877 13.3794 18.3H14.6994C15.6542 18.3 16.57 18.6793 17.2451 19.3544C17.9203 20.0295 18.2996 20.9452 18.2996 21.9C18.2996 22.8548 17.9203 23.7705 17.2451 24.4456C16.57 25.1207 15.6542 25.5 14.6994 25.5Z" stroke="#F2CE60" stroke-width="1.5" stroke-linecap="round" stroke-linejoin="round"/>
</svg>
